<svg id="Layer_1" data-name="Layer 1" xmlns="http://www.w3.org/2000/svg" viewBox="0 0 266 59.3"><defs><style>.cls-1{fill:#9333ea;}</style></defs><path d="M14.08,39.23a5,5,0,0,1-3.49-1,4.58,4.58,0,0,1-1-3.35V15.8H4.2V34.92q0,4.74,2.25,6.8t6.74,2.08h4.86V39.23Z"/><path d="M24.56,18.73a14.6,14.6,0,0,1,5.53-5.83,15.22,15.22,0,0,1,7.85-2.07,14.39,14.39,0,0,1,7.39,1.83A12.22,12.22,0,0,1,50,17.28V11.36h5.45V43.8H50v-6a12.64,12.64,0,0,1-4.76,4.7,14.22,14.22,0,0,1-7.37,1.87,14.74,14.74,0,0,1-7.82-2.13,15,15,0,0,1-5.5-6,18.61,18.61,0,0,1-2-8.76A18.26,18.26,0,0,1,24.56,18.73Zm24,2.4a10.45,10.45,0,0,0-4-4.18,11.33,11.33,0,0,0-11,0,10.33,10.33,0,0,0-4,4.15,13.11,13.11,0,0,0-1.48,6.39,13.42,13.42,0,0,0,1.48,6.48,10.4,10.4,0,0,0,4,4.2A10.66,10.66,0,0,0,39,39.59a10.89,10.89,0,0,0,5.54-1.45,10.31,10.31,0,0,0,4-4.2A13.29,13.29,0,0,0,50,27.52,13.11,13.11,0,0,0,48.53,21.13Z"/><path d="M69.37,43.06a11.23,11.23,0,0,1-4.68-3.55,9.43,9.43,0,0,1-1.89-5.24h5.56a5.45,5.45,0,0,0,2.28,4A8.65,8.65,0,0,0,76,39.77a7.76,7.76,0,0,0,4.85-1.36A4.16,4.16,0,0,0,82.62,35a3.39,3.39,0,0,0-1.89-3.17,26.58,26.58,0,0,0-5.86-2A41.53,41.53,0,0,1,69,27.84a10.29,10.29,0,0,1-3.9-2.9,7.52,7.52,0,0,1-1.63-5.06,7.64,7.64,0,0,1,1.48-4.55A10,10,0,0,1,69.13,12a15.09,15.09,0,0,1,6.21-1.21,13.34,13.34,0,0,1,8.71,2.72A9.86,9.86,0,0,1,87.6,21H82.21a5.59,5.59,0,0,0-2-4.09,7.66,7.66,0,0,0-5-1.53,7.69,7.69,0,0,0-4.62,1.24,3.83,3.83,0,0,0-1.72,3.25,3.58,3.58,0,0,0,1,2.64,7.53,7.53,0,0,0,2.6,1.65,45.68,45.68,0,0,0,4.35,1.4,47.06,47.06,0,0,1,5.69,1.86,9.88,9.88,0,0,1,3.75,2.75A7.36,7.36,0,0,1,87.89,35a8.18,8.18,0,0,1-1.48,4.79,9.88,9.88,0,0,1-4.17,3.35,15.09,15.09,0,0,1-6.19,1.21A16.89,16.89,0,0,1,69.37,43.06Z"/><path d="M95.47,0V43.8h5.38V0Z"/><path class="cls-1" d="M132,42.73a12.74,12.74,0,0,1-5.48-4.26,11.21,11.21,0,0,1-2.07-6.57h8.88a5.7,5.7,0,0,0,1.81,4,6.36,6.36,0,0,0,4.47,1.48A6.84,6.84,0,0,0,144.12,36a4.5,4.5,0,0,0,1.66-3.64,4.18,4.18,0,0,0-1.13-3,7.8,7.8,0,0,0-2.81-1.86A46.5,46.5,0,0,0,137.2,26a49,49,0,0,1-6.54-2.34,11.39,11.39,0,0,1-4.32-3.49,9.91,9.91,0,0,1-1.81-6.24,11.14,11.14,0,0,1,1.84-6.4,11.7,11.7,0,0,1,5.15-4.17,18.62,18.62,0,0,1,7.57-1.45q6.39,0,10.39,3.11a11.54,11.54,0,0,1,4.41,8.67h-9.12a4.73,4.73,0,0,0-1.8-3.52,6.81,6.81,0,0,0-4.47-1.39A5.76,5.76,0,0,0,134.62,10a4.51,4.51,0,0,0-1.45,3.61,3.74,3.74,0,0,0,1.1,2.75A8.39,8.39,0,0,0,137,18.14q1.62.67,4.59,1.57a48.62,48.62,0,0,1,6.57,2.36,11.92,11.92,0,0,1,4.38,3.56,9.86,9.86,0,0,1,1.83,6.21A11.75,11.75,0,0,1,152.65,38a12.19,12.19,0,0,1-5,4.52,17.12,17.12,0,0,1-7.88,1.69A19.55,19.55,0,0,1,132,42.73Z"/><path class="cls-1" d="M192.9,11,172.59,59.3h-8.82L170.88,43,157.74,11H167l8.46,22.9L184.08,11Z"/><path class="cls-1" d="M225,14.23q3.6,3.7,3.61,10.33V43.8H220.3V25.68a8.5,8.5,0,0,0-2-6,6.92,6.92,0,0,0-5.33-2.1,7.1,7.1,0,0,0-5.42,2.1,8.42,8.42,0,0,0-2,6V43.8h-8.29V11h8.29v4.08a11.57,11.57,0,0,1,4.23-3.35,13.23,13.23,0,0,1,5.65-1.21A12.68,12.68,0,0,1,225,14.23Z"/><path class="cls-1" d="M236.4,18.49a14.87,14.87,0,0,1,5.74-5.92,16.64,16.64,0,0,1,8.41-2.1,16.19,16.19,0,0,1,10.09,3A14.85,14.85,0,0,1,266,22.07h-8.94a6.54,6.54,0,0,0-2.4-3.34,7,7,0,0,0-4.17-1.21,6.83,6.83,0,0,0-5.63,2.57c-1.38,1.72-2.07,4.15-2.07,7.31s.69,5.54,2.07,7.25a6.84,6.84,0,0,0,5.63,2.58q5,0,6.57-4.5H266a15.15,15.15,0,0,1-5.39,8.46,15.88,15.88,0,0,1-10.06,3.14,16.64,16.64,0,0,1-8.41-2.1,14.8,14.8,0,0,1-5.74-5.92,18.41,18.41,0,0,1-2.07-8.91A18.44,18.44,0,0,1,236.4,18.49Z"/><polygon class="cls-1" points="18.05 11.36 18.05 15.8 0 15.8 0 11.36 4.2 11.36 4.2 3.19 9.58 3.19 9.58 11.36 18.05 11.36"/><polygon class="cls-1" points="120.92 43.8 113.58 43.8 100.85 29.47 100.85 25.74 113.34 11.36 120.86 11.36 105.59 27.52 120.92 43.8"/></svg>